Coordinates
version=1
nRows=54
nColumns=12
inDegrees=yes

Units are S.I. units (second, meters, Newtons, ...)
Angles are in degrees

endheader
time	SC_y	SC_z	SC_x	AC_y	AC_z	AC_x	GH_y	GH_z	GH_yy	EL_x	PS_y
       0.0              -13.07           19.1          74.28          32.15         -17.14          -8.14         -154.0          82.98          155.5          123.5          86.39
 0.0007428              -13.07           19.1          74.28          32.15         -17.13         -8.141         -154.0          82.97          155.5          123.5          86.38
  0.001486              -13.08           19.1          74.27          32.15         -17.13         -8.142         -154.0          82.96          155.5          123.5          86.37
  0.002228              -13.09           19.1          74.26          32.15         -17.13         -8.142         -154.0          82.95          155.5          123.5          86.35
  0.002971              -13.09           19.1          74.25          32.15         -17.13         -8.143         -154.0          82.94          155.5          123.5          86.34
  0.003714               -13.1           19.1          74.23          32.16         -17.12         -8.144         -153.9          82.93          155.5          123.4          86.33
  0.004457              -13.11          19.09          74.22          32.16         -17.12         -8.145         -153.9          82.92          155.4          123.4          86.31
  0.005199              -13.11          19.09          74.21          32.16         -17.11         -8.146         -153.9          82.91          155.4          123.4           86.3
  0.005942              -13.12          19.09          74.19          32.16         -17.11         -8.147         -153.9           82.9          155.4          123.4          86.28
  0.006685              -13.13          19.09          74.18          32.16         -17.11         -8.149         -153.8          82.89          155.4          123.4          86.26
  0.007428              -13.14          19.09          74.16          32.16          -17.1          -8.15         -153.8          82.87          155.3          123.3          86.24
   0.00817              -13.15          19.09          74.15          32.17          -17.1         -8.151         -153.8          82.86          155.3          123.3          86.22
  0.008913              -13.16          19.08          74.13          32.17         -17.09         -8.153         -153.7          82.84          155.3          123.3           86.2
  0.009656              -13.17          19.08          74.11          32.17         -17.08         -8.155         -153.7          82.83          155.3          123.3          86.17
    0.0104              -13.18          19.08          74.08          32.17         -17.08         -8.156         -153.6          82.81          155.2          123.2          86.15
   0.01114               -13.2          19.08          74.06          32.18         -17.07         -8.158         -153.6          82.79          155.2          123.2          86.12
   0.01188              -13.21          19.07          74.04          32.18         -17.06          -8.16         -153.5          82.77          155.2          123.1          86.09
   0.01263              -13.23          19.07          74.01          32.18         -17.05         -8.163         -153.5          82.74          155.1          123.1          86.05
   0.01337              -13.24          19.07          73.98          32.19         -17.05         -8.165         -153.4          82.72          155.1          123.1          86.02
   0.01411              -13.26          19.06          73.94          32.19         -17.04         -8.168         -153.3          82.69          155.0          123.0          85.98
   0.01486              -13.28          19.06          73.91           32.2         -17.02         -8.171         -153.3          82.66          155.0          123.0          85.93
    0.0156              -13.31          19.06          73.86           32.2         -17.01         -8.174         -153.2          82.62          154.9          122.9          85.88
   0.01634              -13.33          19.05          73.82          32.21          -17.0         -8.178         -153.1          82.58          154.8          122.8          85.83
   0.01708              -13.36          19.05          73.77          32.21         -16.98         -8.182         -153.0          82.54          154.8          122.8          85.77
   0.01783              -13.39          19.04          73.71          32.22         -16.97         -8.186         -152.9          82.49          154.7          122.7           85.7
   0.01857              -13.43          19.03          73.65          32.23         -16.95         -8.192         -152.7          82.44          154.6          122.6          85.63
   0.01931              -13.47          19.03          73.58          32.24         -16.93         -8.197         -152.6          82.38          154.5          122.5          85.54
   0.02005              -13.51          19.02          73.51          32.25         -16.91         -8.203         -152.4          82.32          154.4          122.4          85.45
    0.0208              -13.56          19.01          73.42          32.26         -16.88         -8.211         -152.3          82.24          154.2          122.2          85.34
   0.02154              -13.62           19.0          73.32          32.27         -16.85         -8.219         -152.1          82.16          154.1          122.1          85.22
   0.02228              -13.68          18.99           73.2          32.28         -16.82         -8.228         -151.8          82.06          153.9          121.9          85.08
   0.02303              -13.75          18.97          73.07           32.3         -16.78         -8.239         -151.6          81.95          153.7          121.7          84.93
   0.02377              -13.84          18.96          72.92          32.32         -16.73         -8.251         -151.2          81.82          153.5          121.5          84.74
   0.02451              -13.94          18.94          72.75          32.34         -16.68         -8.265         -150.9          81.67          153.2          121.3          84.53
   0.02525              -14.06          18.91          72.54          32.37         -16.62         -8.282         -150.5           81.5          152.9          120.9          84.28
     0.026              -14.19          18.89           72.3           32.4         -16.55         -8.302         -150.0          81.29          152.5          120.6          83.99
   0.02674              -14.36          18.86          72.01          32.43         -16.46         -8.325         -149.4          81.05          152.1          120.2          83.65
   0.02748              -14.55          18.82          71.67          32.48         -16.36         -8.353         -148.7          80.76          151.6          119.7          83.23
   0.02822              -14.79          18.78          71.25          32.53         -16.23         -8.387         -147.8          80.41          151.0          119.0          82.73
   0.02897              -15.07          18.72          70.74          32.59         -16.08         -8.429         -146.8          79.97          150.2          118.3          82.11
   0.02971              -15.43          18.65          70.11          32.67          -15.9          -8.48         -145.5          79.44          149.3          117.4          81.35
   0.03045              -15.87          18.57          69.33          32.77         -15.66         -8.544         -143.9          78.78          148.1          116.2           80.4
    0.0312              -16.43          18.46          68.34          32.89         -15.37         -8.624         -141.8          77.94          146.6          114.8          79.21
   0.03194              -17.14          18.33          67.09          33.05          -15.0         -8.727         -139.3          76.87          144.7          112.9           77.7
   0.03268              -18.05          18.16          65.48          33.25         -14.52         -8.858         -136.0          75.51          142.3          110.5          75.75
   0.03342              -19.22          17.94          63.42          33.51          -13.9         -9.026         -131.7          73.76          139.2          107.5          73.26
   0.03417              -20.71          17.66          60.78          33.84         -13.12          -9.24         -126.3          71.53          135.2          103.6          70.08
   0.03491              -22.58           17.3          57.47          34.25         -12.13          -9.51         -119.5          68.72          130.3          98.73          66.08
   0.03565              -24.86          16.87          53.43          34.75         -10.93         -9.839         -111.2           65.3          124.2          92.77          61.21
    0.0364              -27.51          16.37          48.75          35.34         -9.542         -10.22         -101.6          61.33          117.2          85.88          55.56
   0.03714              -30.38          15.83          43.69          35.97         -8.035         -10.63         -91.23          57.04          109.6          78.41          49.44
   0.03788              -33.24          15.28          38.62           36.6         -6.528         -11.05         -80.83          52.74          101.9          70.94          43.32
   0.03862              -35.89          14.78          33.94          37.19         -5.137         -11.43         -71.22          48.77          94.91          64.04          37.67
   0.03937              -38.17          14.35          29.91          37.69         -3.936         -11.76         -62.94          45.35          88.84          58.09           32.8
